<svg width="68" height="72" viewBox="0 0 68 72" fill="none" xmlns="http://www.w3.org/2000/svg">
<g id="Payment icon">
<path id="Vector" d="M10.9331 13.2015C10.9331 10.0308 10.9331 6.98007 10.9331 3.92936C10.9381 1.48442 12.3093 0 14.5793 0C26.3003 0 38.0263 0 49.7472 0C51.9715 0 53.358 1.49534 53.358 3.8857C53.358 15.3081 53.358 26.736 53.3732 38.1584C53.3732 38.6114 53.5763 39.0644 53.7033 39.5828C56.278 37.6236 58.9188 38.2512 60.5388 40.6852C60.7064 40.5761 60.874 40.4615 61.0416 40.3523C62.4889 39.4082 63.987 39.3209 65.4852 40.1722C66.9833 41.0236 67.8263 42.4098 67.8517 44.2216C67.9025 48.2438 67.8771 52.2714 67.8618 56.2935C67.8618 56.61 67.7654 56.932 67.6739 57.2376C66.8005 60.081 65.9422 62.9297 65.023 65.7567C64.6625 66.8591 64.4644 67.956 64.5152 69.1239C64.5558 70.0462 64.5253 70.9686 64.5253 71.9509H62.2756C62.4584 69.8389 61.9912 67.7105 62.7073 65.5984C63.6823 62.7169 64.5406 59.7863 65.4344 56.8665C65.5613 56.4463 65.6324 55.9933 65.6375 55.5513C65.6527 51.8784 65.6578 48.2001 65.6375 44.5273C65.6324 42.7045 64.0886 41.5311 62.5854 42.1696C61.7271 42.5353 61.1888 43.3867 61.1787 44.4618C61.1685 46.4101 61.1787 48.3529 61.1787 50.3503H58.9442C58.9442 49.2425 58.9442 48.151 58.9442 47.0595C58.9442 45.8098 58.9543 44.56 58.9442 43.3102C58.929 41.8586 57.959 40.7889 56.6894 40.8053C55.4452 40.8162 54.4955 41.8695 54.4854 43.283C54.4701 44.9802 54.4854 46.6829 54.4854 48.3802C54.4854 48.6258 54.4854 48.8714 54.4854 49.1552H52.2509V48.3857C52.2509 46.3337 52.2509 44.2871 52.2509 42.2351C52.2509 40.6961 51.3368 39.6156 50.0468 39.5992C48.7214 39.5828 47.792 40.6688 47.787 42.246C47.787 44.1398 47.787 46.0335 47.787 47.96H45.5525V47.0923C45.5525 40.6688 45.5525 34.2454 45.5525 27.8166C45.5525 25.9392 44.0137 24.7113 42.5105 25.3607C41.6269 25.7427 41.0936 26.605 41.0936 27.7238C41.0835 29.9231 41.0936 32.1225 41.0936 34.3218C41.0936 40.2486 41.0936 46.1699 41.0936 52.0967C41.0936 53.1336 40.5452 53.7667 39.7682 53.5211C39.4178 53.412 39.0623 53.0463 38.8591 52.697C37.5235 50.3831 36.2387 48.0364 34.9285 45.7115C34.3241 44.6419 33.3948 44.2053 32.3943 44.489C31.0029 44.8874 30.2716 46.5083 30.9521 47.8672C33.0241 52.0258 35.1367 56.1625 37.2442 60.3047C37.361 60.5394 37.554 60.7359 37.7368 60.9269C39.0013 62.2148 40.2659 63.5137 41.5507 64.7798C42.0128 65.2328 42.2312 65.7349 42.221 66.417C42.1906 68.2398 42.2109 70.0626 42.2109 71.9891H41.439C32.5061 71.9891 23.5783 71.9891 14.6454 71.9891C12.3245 71.9891 10.9483 70.5156 10.9483 68.0379C10.9483 58.4874 10.9483 48.9369 10.9483 39.3918C10.9483 39.0916 10.9483 38.7969 10.9483 38.3931C10.669 38.3931 10.4252 38.3931 10.1814 38.3931C8.27197 38.3931 6.36757 38.3985 4.4581 38.3931C2.32009 38.3822 0.903223 36.8759 0.903223 34.5947C0.898144 28.7225 0.898144 22.8448 0.903223 16.9726C0.903223 14.7296 2.32517 13.207 4.40731 13.1961C6.3371 13.1852 8.26689 13.1961 10.1967 13.1961C10.4252 13.1961 10.6537 13.1961 10.9483 13.1961L10.9331 13.2015ZM34.4816 59.9718C34.3444 59.6826 34.248 59.4588 34.1413 59.246C32.4451 55.8896 30.7236 52.5497 29.068 49.1661C27.7476 46.4756 28.9969 43.272 31.6427 42.3661C33.6081 41.6948 35.6394 42.4916 36.7872 44.429C37.4524 45.5533 38.0771 46.7048 38.722 47.8454C38.7626 47.8345 38.8033 47.8181 38.8439 47.8072V47.0104C38.8439 40.6634 38.8388 34.3109 38.8541 27.9639C38.8541 27.3472 38.915 26.7087 39.0826 26.1193C39.7174 23.9036 41.83 22.4956 43.9071 22.8394C46.1009 23.1996 47.7362 25.1042 47.7616 27.4509C47.7971 30.6272 47.7717 33.7979 47.7768 36.9742C47.7768 37.2361 47.7768 37.4926 47.7768 37.6072C48.9194 37.4435 49.9961 37.2907 51.0778 37.1324V9.63784H13.2082V13.2015H14.0715C20.3281 13.2015 26.5847 13.2015 32.8412 13.2015C35.2636 13.2015 36.6094 14.6369 36.6094 17.2237C36.6094 22.9212 36.6094 28.6243 36.6094 34.3218C36.6094 36.9687 35.2789 38.404 32.8209 38.404C26.544 38.404 20.2621 38.404 13.9852 38.404H13.2031V59.9718H34.4765H34.4816ZM3.12756 24.0291C3.12756 27.6856 3.11232 31.282 3.13772 34.873C3.13772 35.6043 3.64556 35.9973 4.44286 35.9973C13.975 35.9973 23.5021 35.9973 33.0342 35.9973C33.9534 35.9973 34.3749 35.5607 34.3749 34.5947C34.38 31.1729 34.3749 27.7511 34.3749 24.3238C34.3749 24.231 34.3444 24.1383 34.3241 24.0237H3.12756V24.0291ZM51.1285 7.17653C51.1285 6.13416 51.1285 5.16274 51.1285 4.19131C51.1285 2.7178 50.8289 2.40127 49.4476 2.40127C37.9196 2.40127 26.3866 2.40127 14.8586 2.40127C14.625 2.40127 14.3914 2.37944 14.1629 2.41765C13.6195 2.50496 13.2234 2.85424 13.2031 3.43819C13.1523 4.67703 13.1879 5.91586 13.1879 7.17653H51.1285ZM39.9611 69.6042C39.9611 68.6928 39.9916 67.8469 39.9459 67.0064C39.9307 66.7227 39.7986 66.3788 39.6107 66.1824C38.5494 65.0581 37.4778 63.9503 36.3606 62.8915C36.0813 62.6296 35.6445 62.4277 35.2738 62.4277C28.159 62.4004 21.0441 62.4058 13.9293 62.4058H13.1625C13.1625 64.2886 13.1625 66.0623 13.1625 67.836C13.1625 69.2713 13.4722 69.6096 14.7926 69.6096C22.9079 69.6096 31.0232 69.6096 39.1385 69.6096H39.9561L39.9611 69.6042ZM3.1174 17.955H34.3292C34.5222 16.3068 34.3495 15.5646 32.4248 15.581C24.9189 15.6356 17.408 15.6028 9.90214 15.6028C8.06376 15.6028 6.23046 15.5974 4.39208 15.6028C3.55922 15.6083 3.14787 16.0503 3.1174 16.929C3.10725 17.251 3.1174 17.573 3.1174 17.955ZM3.14787 21.5514H34.3495V20.4436H3.14787V21.5514Z" fill="#F2CE05"/>
<path id="Vector_2" d="M28.2352 28.8046C29.0021 28.8046 29.7689 28.7828 30.5357 28.8046C32.0745 28.8537 33.2628 30.169 33.2628 31.7953C33.2628 33.4216 32.0796 34.7587 30.5408 34.7914C29.0071 34.8242 27.4735 34.8242 25.9449 34.7914C24.4061 34.7587 23.2178 33.4271 23.2178 31.8062C23.2178 30.1799 24.401 28.8592 25.9398 28.8101C26.7066 28.7828 27.4735 28.8101 28.2403 28.8101L28.2352 28.8046ZM28.2352 31.2059C27.5395 31.2059 26.8437 31.2059 26.148 31.2059C25.7417 31.2059 25.4015 31.386 25.4878 31.8335C25.5335 32.0627 25.9093 32.3683 26.148 32.3792C27.5395 32.4284 28.931 32.4011 30.3224 32.4065C30.7287 32.4065 31.069 32.2264 30.9826 31.7789C30.9369 31.5497 30.5662 31.2605 30.3224 31.2332C29.6318 31.1568 28.931 31.2059 28.2352 31.2059Z" fill="#F2CE05" stroke="#FFF5B7" stroke-width="0.5"/>
<path id="Vector_3" d="M34.3487 64.8457V67.1487H29.9609V64.8457H34.3487Z" fill="#F2CE05" stroke="#FFF5B7" stroke-width="0.5"/>
</g>
</svg>
