<svg width="40" height="39" viewBox="0 0 40 39" fill="none" xmlns="http://www.w3.org/2000/svg">
<g id="cics--program 1" clip-path="url(#clip0_2782_8567)">
<path id="Vector" d="M31.199 10.7999C31.8618 10.7999 32.399 10.2626 32.399 9.5999C32.399 8.93716 31.8618 8.3999 31.199 8.3999C30.5363 8.3999 29.999 8.93716 29.999 9.5999C29.999 10.2626 30.5363 10.7999 31.199 10.7999Z" fill="#313131"/>
<path id="Vector_2" d="M27.5994 10.7999C28.2622 10.7999 28.7994 10.2626 28.7994 9.5999C28.7994 8.93716 28.2622 8.3999 27.5994 8.3999C26.9367 8.3999 26.3994 8.93716 26.3994 9.5999C26.3994 10.2626 26.9367 10.7999 27.5994 10.7999Z" fill="#313131"/>
<g id="Group 1000005146">
<path id="Vector_3" d="M34.2 5H5.4C4.07664 5 3 6.077 3 7.4V31.4C3 32.723 4.07664 33.8 5.4 33.8H34.2C35.5234 33.8 36.6 32.723 36.6 31.4V7.4C36.6 6.077 35.5234 5 34.2 5ZM34.2 7.4V12.2H5.4V7.4H34.2ZM5.4 31.4V14.6H34.2V31.4H5.4Z" fill="#313131"/>
<path id="Vector_4" d="M26.7994 23.6999V21.8999H24.9184C24.7835 21.0984 24.4683 20.338 23.9965 19.6762L25.327 18.3449L24.0544 17.0724L22.7235 18.4031C22.0616 17.9311 21.3011 17.6157 20.4994 17.4809V15.5999H18.6994V17.4809C17.8979 17.6157 17.1374 17.9309 16.4756 18.4028L15.1444 17.0724L13.8718 18.3449L15.2026 19.676C14.7307 20.3378 14.4154 21.0983 14.2804 21.8999H12.3994V23.6999H14.2804C14.4154 24.5013 14.7306 25.2617 15.2024 25.9235L13.8718 27.2549L15.1444 28.5273L16.4753 27.1966C17.1372 27.6686 17.8977 27.984 18.6994 28.1189V29.9999H20.4994V28.1189C21.301 27.984 22.0614 27.6688 22.7232 27.1969L24.0544 28.5273L25.327 27.2549L23.9962 25.9238C24.4682 25.2619 24.7835 24.5015 24.9184 23.6999H26.7994ZM19.5994 26.3999C18.8874 26.3999 18.1914 26.1887 17.5994 25.7931C17.0073 25.3976 16.5459 24.8353 16.2734 24.1775C16.001 23.5197 15.9297 22.7959 16.0686 22.0975C16.2075 21.3992 16.5504 20.7577 17.0538 20.2543C17.5573 19.7508 18.1988 19.4079 18.8971 19.269C19.5954 19.1301 20.3193 19.2014 20.9771 19.4739C21.6349 19.7464 22.1971 20.2078 22.5927 20.7998C22.9883 21.3918 23.1994 22.0878 23.1994 22.7999C23.1983 23.7543 22.8187 24.6694 22.1438 25.3443C21.4689 26.0192 20.5539 26.3988 19.5994 26.3999Z" fill="#19B3B5"/>
</g>
</g>
<defs>
<clipPath id="clip0_2782_8567">
<rect width="38.4" height="38.4" fill="white" transform="translate(0.799805)"/>
</clipPath>
</defs>
</svg>
