<svg width="135" height="136" viewBox="0 0 135 136" fill="none" xmlns="http://www.w3.org/2000/svg">
<path d="M32.422 67.6235L32.4211 67.6235C32.2443 67.6226 32.0717 67.5694 31.9251 67.4706C31.7789 67.3721 31.665 67.2326 31.5977 67.0697C31.5975 67.0692 31.5973 67.0687 31.5971 67.0681L29.8782 62.9499H28.5291C28.2495 62.9499 28.0228 62.7233 28.0228 62.4437V61.6648C28.0228 61.3852 28.2495 61.1585 28.5291 61.1585H30.4764H30.4789V61.1585C30.6557 61.1594 30.8283 61.2126 30.975 61.3114C31.1208 61.4097 31.2345 61.5487 31.3018 61.7111L32.3942 64.2976L35.0884 57.0676L35.0885 57.0672C35.1526 56.8957 35.2676 56.748 35.4181 56.6439C35.5687 56.5399 35.7475 56.4844 35.9305 56.485L35.9377 56.485L35.9377 56.485C36.1224 56.4883 36.3016 56.5485 36.4507 56.6576L36.1534 57.0642L36.4507 56.6576C36.5998 56.7666 36.7116 56.9191 36.7707 57.0941L36.7711 57.0953L38.1315 61.1585H39.434C39.7136 61.1585 39.9403 61.3852 39.9403 61.6648V62.4437C39.9403 62.7233 39.7136 62.9499 39.434 62.9499H37.4874H37.4867V62.4437C37.405 62.4439 37.3254 62.4184 37.259 62.3709C37.1926 62.3234 37.1428 62.2562 37.1167 62.1789L32.422 67.6235ZM32.422 67.6235C32.6051 67.6241 32.7839 67.5686 32.9344 67.4645C33.0846 67.3606 33.1995 67.2133 33.2636 67.0423C33.2638 67.0419 33.2639 67.0416 33.264 67.0413L35.8948 60.0727L32.422 67.6235Z" fill="#ED8873" stroke="#ED8873" stroke-width="1.0125" stroke-linejoin="round"/>
<path d="M102.528 67.6235L102.529 67.6235C102.706 67.6226 102.879 67.5694 103.025 67.4706C103.172 67.3721 103.285 67.2326 103.353 67.0697C103.353 67.0692 103.353 67.0687 103.353 67.0681L105.072 62.9499H106.421C106.701 62.9499 106.928 62.7233 106.928 62.4437V61.6648C106.928 61.3852 106.701 61.1585 106.421 61.1585H104.474H104.472V61.1585C104.295 61.1594 104.122 61.2126 103.975 61.3114C103.83 61.4097 103.716 61.5487 103.649 61.7111L102.556 64.2976L99.8621 57.0676L99.8619 57.0672C99.7979 56.8957 99.6828 56.748 99.5323 56.6439C99.3818 56.5399 99.203 56.4844 99.02 56.485L99.0128 56.485L99.0128 56.485C98.828 56.4883 98.6488 56.5485 98.4997 56.6576L98.797 57.0642L98.4997 56.6576C98.3506 56.7666 98.2388 56.9191 98.1797 57.0941L98.1793 57.0953L96.819 61.1585H95.5164C95.2368 61.1585 95.0102 61.3852 95.0102 61.6648V62.4437C95.0102 62.7233 95.2368 62.9499 95.5164 62.9499H97.4631H97.4637V62.4437C97.5454 62.4439 97.625 62.4184 97.6914 62.3709C97.7578 62.3234 97.8076 62.2562 97.8337 62.1789L102.528 67.6235ZM102.528 67.6235C102.345 67.6241 102.167 67.5686 102.016 67.4645C101.866 67.3606 101.751 67.2133 101.687 67.0423C101.687 67.0419 101.687 67.0416 101.686 67.0413L99.0557 60.0727L102.528 67.6235Z" fill="#ED8873" stroke="#ED8873" stroke-width="1.0125" stroke-linejoin="round"/>
<g filter="url(#filter0_bd_167_55111)">
<path d="M51.7017 27V27C41.0546 27 32.4233 35.6312 32.4233 46.2784V46.2784M32.4233 77.8249V77.8249C32.4233 88.472 41.0546 97.1033 51.7017 97.1033V97.1033M83.2482 97.1033V97.1033C93.8954 97.1033 102.527 88.472 102.527 77.8249V77.8249M102.527 46.2784V46.2784C102.527 35.6312 93.8954 27 83.2482 27V27" stroke="#19B3B5" stroke-width="4.05"/>
</g>
<path d="M67.3722 39.4629C58.4718 39.4629 51.2566 46.7338 51.2566 55.7028C51.2566 57.1419 51.4424 58.5373 51.791 59.866C50.2139 60.6358 49.516 63.1347 50.2301 65.7281C50.8721 68.06 52.4534 69.7337 54.0345 69.9319C55.4039 74.6647 59.396 82.2108 67.5616 84.6089L67.6705 84.6406L67.7794 84.6089C75.945 82.2108 79.9371 74.6647 81.3065 69.9319C82.8876 69.7337 84.4688 68.06 85.1109 65.7281C85.8464 63.057 85.084 60.486 83.4058 59.8014C83.7436 58.4922 83.9234 57.1187 83.9234 55.7028C83.9234 46.7338 76.7082 39.4629 67.8078 39.4629H67.3722Z" fill="#E6EBF4"/>
<defs>
<filter id="filter0_bd_167_55111" x="0.0234356" y="-5.3999" width="134.903" height="140.978" filterUnits="userSpaceOnUse" color-interpolation-filters="sRGB">
<feFlood flood-opacity="0" result="BackgroundImageFix"/>
<feGaussianBlur in="BackgroundImageFix" stdDeviation="15.1875"/>
<feComposite in2="SourceAlpha" operator="in" result="effect1_backgroundBlur_167_55111"/>
<feColorMatrix in="SourceAlpha" type="matrix" values="0 0 0 0 0 0 0 0 0 0 0 0 0 0 0 0 0 0 127 0" result="hardAlpha"/>
<feOffset dy="6.075"/>
<feGaussianBlur stdDeviation="15.1875"/>
<feComposite in2="hardAlpha" operator="out"/>
<feColorMatrix type="matrix" values="0 0 0 0 0.0980392 0 0 0 0 0.701961 0 0 0 0 0.709804 0 0 0 0.3 0"/>
<feBlend mode="normal" in2="effect1_backgroundBlur_167_55111" result="effect2_dropShadow_167_55111"/>
<feBlend mode="normal" in="SourceGraphic" in2="effect2_dropShadow_167_55111" result="shape"/>
</filter>
</defs>
</svg>
